# xmcd
#
# Track frame offsets:
#	150
#	15680
#	36612
#	49414
#	61965
#
# Disc length: 1080 seconds
#
# Revision: 0
# Processed by: cddbd v1.5PL3 Copyright (c) Steve Scherf et al.
# Submitted via: dBpowerAMP V4.0
#
DISCID=44043605
DTITLE=Chris  the other Girls - Chris 1
DYEAR=1900
DGENRE=Alternative
TTITLE0=Let Go
TTITLE1=With a Smile
TTITLE2=Go on with the Show
TTITLE3=To Sleep
TTITLE4=We have Tried
EXTD=
EXTT0=
EXTT1=
EXTT2=
EXTT3=
EXTT4=
PLAYORDER=
